# xmcd
#
# Track frame offsets:
#	150
#	28997
#	40465
#	53589
#	66180
#	78772
#	89628
#	102578
#	116481
#	128565
#	140063
#	153815
#	166897
#	179282
#	207340
#	217525
#	227741
#	241935
#	255854
#
# Disc length: 3599 seconds
#
# Revision: 1
# Processed by: cddbd v1.5.1PL0 Copyright (c) Steve Scherf et al.
# Submitted via: audiograbber 1.83.01
#
DISCID=f90e0d13
DTITLE=Ray Charles - Can Anyone Ask For More
DYEAR=2004
DGENRE=Blues
TTITLE0=What'd I Say
TTITLE1=How Long, How Long Blues
TTITLE2=Alone In The City
TTITLE3=Can Anyone Ask For More
TTITLE4=You Always Miss The Water
TTITLE5=A Sentimental Blues
TTITLE6=Don't Put All Your Dreams In One Basket
TTITLE7=Kiss Me Baby
TTITLE8=I've Had My Fun
TTITLE9=She's On The Ball
TTITLE10=I'm Going Down The River
TTITLE11=Baby Won't You Please Go Home
TTITLE12=Rockin' Chair Blues
TTITLE13=I Got A Woman
TTITLE14=Sittin' On Top Of The World
TTITLE15=Ain't That Fine
TTITLE16=Someday
TTITLE17=The Midnight Hour
TTITLE18=Blues Is My Middle Name
EXTD=
EXTT0=
EXTT1=
EXTT2=
EXTT3=
EXTT4=
EXTT5=
EXTT6=
EXTT7=
EXTT8=
EXTT9=
EXTT10=
EXTT11=
EXTT12=
EXTT13=
EXTT14=
EXTT15=
EXTT16=
EXTT17=
EXTT18=
PLAYORDER=
